<svg xmlns="http://www.w3.org/2000/svg" viewBox="0 0 226 64" role="img" aria-label="claimward logo">
  <g fill="none" stroke="#0D9488" stroke-width="4" stroke-linecap="round" stroke-linejoin="round">
    <path d="M14 15 H50 V33 Q50 46 32 55 Q14 46 14 33 Z"/>
    <path d="M32 19 L25.9 22.5 L25.9 29.5 L32 33 L38.1 29.5 L38.1 22.5 Z"/>
    <path d="M32 33 V46"/><path d="M32 42 H37"/><path d="M32 46 H38"/>
  </g>
  <g transform="translate(74.00,43.0) scale(0.014648,-0.014648)" fill="#0D9488"><path d="M618.0 -23Q460.0 -23 343.0 49.0Q226.0 121 161.0 250.5Q96.0 380 96.0 553Q96.0 727 161.0 857.5Q226.0 988 343.0 1060.0Q460.0 1132 618.0 1132Q792.0 1132 918.5 1044.5Q1045.0 957 1086.0 802L877.0 752Q854.0 839 787.5 892.5Q721.0 946 619.0 946Q518.0 946 451.5 893.0Q385.0 840 352.5 750.5Q320.0 661 320.0 553Q320.0 446 352.5 357.5Q385.0 269 451.5 216.0Q518.0 163 619.0 163Q723.0 163 791.0 218.5Q859.0 274 881.0 365L1089.0 315Q1048.0 157 921.0 67.0Q794.0 -23 618.0 -23ZM1515.8666666666666 1490V0H1295.8666666666666V1490ZM2090.733333333333 -25Q1983.7333333333331 -25 1898.2333333333331 14.5Q1812.7333333333331 54 1762.7333333333331 130.0Q1712.7333333333331 206 1712.7333333333331 316Q1712.7333333333331 411 1749.7333333333331 472.5Q1786.7333333333331 534 1848.7333333333331 569.5Q1910.7333333333331 605 1987.2333333333331 623.0Q2063.733333333333 641 2142.733333333333 650Q2290.733333333333 667 2357.733333333333 679.5Q2424.733333333333 692 2424.733333333333 751V757Q2424.733333333333 850 2370.233333333333 901.5Q2315.733333333333 953 2210.733333333333 953Q2100.733333333333 953 2037.7333333333331 905.0Q1974.7333333333331 857 1951.7333333333331 800L1744.7333333333331 854Q1782.7333333333331 954 1853.7333333333331 1015.0Q1924.7333333333331 1076 2016.2333333333331 1104.0Q2107.733333333333 1132 2207.733333333333 1132Q2274.733333333333 1132 2350.733333333333 1116.0Q2426.733333333333 1100 2493.733333333333 1058.5Q2560.733333333333 1017 2602.733333333333 940.0Q2644.733333333333 863 2644.733333333333 742V0H2431.733333333333V153H2420.733333333333Q2387.733333333333 87 2307.233333333333 31.0Q2226.733333333333 -25 2090.733333333333 -25ZM2139.733333333333 152Q2228.733333333333 152 2292.733333333333 187.5Q2356.733333333333 223 2391.233333333333 280.0Q2425.733333333333 337 2425.733333333333 403V546Q2409.733333333333 530 2357.233333333333 518.5Q2304.733333333333 507 2246.733333333333 499.0Q2188.733333333333 491 2154.733333333333 487Q2061.733333333333 474 1995.2333333333331 436.5Q1928.7333333333331 399 1928.7333333333331 313Q1928.7333333333331 233 1988.2333333333331 192.5Q2047.7333333333331 152 2139.733333333333 152ZM2906.5999999999995 0V1118H3126.5999999999995V0ZM3017.5999999999995 1289Q2960.5999999999995 1289 2920.0999999999995 1327.0Q2879.5999999999995 1365 2879.5999999999995 1419Q2879.5999999999995 1474 2920.0999999999995 1512.0Q2960.5999999999995 1550 3017.5999999999995 1550Q3074.5999999999995 1550 3115.5999999999995 1512.0Q3156.5999999999995 1474 3156.5999999999995 1419Q3156.5999999999995 1365 3115.5999999999995 1327.0Q3074.5999999999995 1289 3017.5999999999995 1289ZM3388.4666666666662 0V1118H3597.4666666666662L3602.4666666666662 909Q3645.4666666666662 1025 3731.4666666666662 1081.0Q3817.4666666666662 1137 3917.4666666666662 1137Q4026.4666666666662 1137 4098.466666666666 1075.0Q4170.466666666666 1013 4203.466666666666 902Q4245.466666666666 1015 4341.966666666666 1076.0Q4438.466666666666 1137 4557.466666666666 1137Q4656.466666666666 1137 4736.466666666666 1094.0Q4816.466666666666 1051 4863.966666666666 966.0Q4911.466666666666 881 4911.466666666666 754V0H4690.466666666666V732Q4690.466666666666 844 4628.466666666666 894.0Q4566.466666666666 944 4481.466666666666 944Q4377.466666666666 944 4317.966666666666 880.0Q4258.466666666666 816 4258.466666666666 716V0H4041.4666666666662V746Q4041.4666666666662 836 3983.9666666666662 890.0Q3926.4666666666662 944 3837.4666666666662 944Q3745.4666666666662 944 3676.9666666666662 880.5Q3608.4666666666662 817 3608.4666666666662 695V0Z"/></g>
  <g transform="translate(147.61,43.0) scale(0.014648,-0.014648)" fill="#134E4A"><path d="M361.0 0 31.0 1118H346.0L443.0 705Q463.0 612 487.0 505.0Q511.0 398 534.0 273Q557.0 395 582.5 502.5Q608.0 610 631.0 705L733.0 1118H1009.0L1109.0 705Q1130.0 610 1155.5 503.0Q1181.0 396 1205.0 272Q1226.0 396 1249.0 503.0Q1272.0 610 1294.0 705L1391.0 1118H1710.0L1378.0 0H1073.0L949.0 431Q928.0 503 908.5 593.0Q889.0 683 869.0 771Q850.0 683 830.0 592.5Q810.0 502 790.0 431L666.0 0ZM2146.866666666667 -22Q1986.8666666666666 -22 1880.8666666666666 62.5Q1774.8666666666666 147 1774.8666666666666 313Q1774.8666666666666 438 1834.8666666666666 509.0Q1894.8666666666666 580 1990.8666666666668 613.0Q2086.866666666667 646 2196.866666666667 656Q2340.866666666667 670 2404.366666666667 685.5Q2467.866666666667 701 2467.866666666667 756V761Q2467.866666666667 832 2422.366666666667 871.0Q2376.866666666667 910 2292.866666666667 910Q2205.866666666667 910 2152.866666666667 872.5Q2099.866666666667 835 2081.866666666667 781L1806.8666666666666 827Q1849.8666666666666 972 1978.3666666666668 1052.0Q2106.866666666667 1132 2293.866666666667 1132Q2413.866666666667 1132 2522.366666666667 1094.0Q2630.866666666667 1056 2699.366666666667 972.5Q2767.866666666667 889 2767.866666666667 753V0H2483.866666666667V155H2473.866666666667Q2432.866666666667 77 2351.866666666667 27.5Q2270.866666666667 -22 2146.866666666667 -22ZM2231.866666666667 189Q2336.866666666667 189 2403.366666666667 250.0Q2469.866666666667 311 2469.866666666667 400V521Q2451.866666666667 508 2411.366666666667 498.5Q2370.866666666667 489 2325.866666666667 481.5Q2280.866666666667 474 2247.866666666667 470Q2164.866666666667 458 2113.866666666667 423.0Q2062.866666666667 388 2062.866666666667 321Q2062.866666666667 256 2110.366666666667 222.5Q2157.866666666667 189 2231.866666666667 189ZM2989.733333333333 0V1118H3279.733333333333V923H3291.733333333333Q3322.733333333333 1026 3395.233333333333 1079.5Q3467.733333333333 1133 3561.733333333333 1133Q3612.733333333333 1133 3658.733333333333 1123V855Q3638.733333333333 861 3600.233333333333 865.5Q3561.733333333333 870 3528.733333333333 870Q3424.733333333333 870 3357.233333333333 805.0Q3289.733333333333 740 3289.733333333333 636V0ZM4198.6 -19Q4069.6 -19 3966.6 47.5Q3863.6 114 3803.1 242.5Q3742.6 371 3742.6 557Q3742.6 748 3804.6 876.0Q3866.6 1004 3969.6 1068.0Q4072.6 1132 4196.6 1132Q4291.6 1132 4354.6 1100.0Q4417.6 1068 4456.1 1021.0Q4494.6 974 4514.6 930H4524.6V1490H4824.6V0H4529.6V179H4514.6Q4493.6 134 4454.6 88.5Q4415.6 43 4352.6 12.0Q4289.6 -19 4198.6 -19ZM4290.6 222Q4404.6 222 4467.6 314.0Q4530.6 406 4530.6 558Q4530.6 710 4468.1 801.0Q4405.6 892 4290.6 892Q4172.6 892 4111.6 798.5Q4050.6 705 4050.6 558Q4050.6 410 4112.1 316.0Q4173.6 222 4290.6 222Z"/></g>
</svg>
